<svg xmlns="http://www.w3.org/2000/svg" viewBox="0 0 800 800"><defs><style>.cls-1,.cls-2{fill:none;stroke-miterlimit:10;}.cls-1{stroke:#565656;stroke-width:0.5px;}.cls-2{stroke:#232323;}</style></defs><title>trivial-group-logo-mockup</title><g id="Bottom"><line class="cls-1" x1="235.67" y1="87.67" x2="377.51" y2="47"/><polygon class="cls-1" points="272 255.5 423 178.08 377.51 47 272 255.5"/><polygon class="cls-1" points="235.67 87.67 272 255.5 377.51 47 235.67 87.67"/><polygon class="cls-1" points="377.51 47 423 178.08 377.51 47 377.51 47"/><polygon class="cls-1" points="377.51 47 423 178.08 616.75 121.5 377.51 47"/><line class="cls-1" x1="377.51" y1="47" x2="616.75" y2="121.5"/><path class="cls-1" d="M736.76,295.23l-120-173.73,14.33,143.6,105.68,30.13"/><polygon class="cls-1" points="423 178.08 631.08 265.1 616.75 121.5 423 178.08"/><line class="cls-1" x1="616.75" y1="121.5" x2="736.76" y2="295.23"/><polygon class="cls-1" points="48.95 377.11 272 255.5 235.67 87.67 235.67 87.67 48.95 377.11"/><polygon class="cls-1" points="94.83 567.91 193.67 535.67 48.95 377.11 94.83 567.91"/><line class="cls-1" x1="94.83" y1="567.91" x2="48.95" y2="377.11"/><polygon class="cls-1" points="48.95 377.11 193.67 535.67 272 255.5 48.95 377.11"/><polygon class="cls-1" points="272 255.5 193.67 535.67 410.33 407.67 272 255.5"/><polyline class="cls-1" points="423 178.08 272 255.5 410.33 407.67"/><polyline class="cls-1" points="410.33 407.67 423 178.08 631.08 265.1 410.33 407.67"/><path class="cls-1" d="M593.3,460.9l-183-53.23L446.93,551,593.3,460.9"/><polygon class="cls-1" points="193.67 535.67 446.93 551 410.33 407.67 193.67 535.67"/><path class="cls-1" d="M593.3,460.9l37.78-195.8L410.33,407.67l183,53.23"/><path class="cls-1" d="M593.3,460.9l147,20.77L631.08,265.1,593.3,460.9"/><path class="cls-1" d="M736.76,295.23,631.08,265.1,740.33,481.67l-3.57-186.34c0-.1,0,0,0-.1h0"/><line class="cls-1" x1="740.33" y1="481.67" x2="607.67" y2="686.33"/><path class="cls-1" d="M593.3,460.9l14.37,225.43L740.33,481.67l-147-20.77"/><line class="cls-1" x1="235.38" y1="709.55" x2="94.83" y2="567.91"/><polygon class="cls-1" points="193.67 540.36 193.67 535.67 94.83 567.91 235.38 709.55 193.67 540.36"/><polygon class="cls-1" points="235.38 709.55 446.93 551 193.67 535.67 193.67 540.36 235.38 709.55"/><polyline class="cls-1" points="446.93 551 235.38 709.55 401.35 750.5"/><line class="cls-1" x1="401.35" y1="750.5" x2="446.93" y2="551"/><path class="cls-1" d="M593.3,460.9,446.93,551,401.35,750.5"/><line class="cls-1" x1="401.35" y1="750.5" x2="607.67" y2="686.33"/><line class="cls-1" x1="607.67" y1="686.33" x2="401.35" y2="750.5"/><line class="cls-1" x1="446.93" y1="551" x2="607.67" y2="686.33"/></g><g id="Upper"><line class="cls-2" x1="607.67" y1="686.33" x2="401.35" y2="750.5"/><line class="cls-2" x1="401.35" y1="750.5" x2="235.67" y2="709.55"/><polygon class="cls-2" points="568 557.91 325.86 594.54 401.35 750.5 568 557.91"/><polygon class="cls-2" points="607.67 686.33 568 557.91 401.35 750.5 607.67 686.33"/><polygon class="cls-2" points="401.35 750.5 325.86 594.54 235.67 709.55 401.35 750.5"/><polygon class="cls-2" points="235.67 709.55 325.86 594.54 94.83 567.91 235.67 709.55"/><line class="cls-2" x1="235.67" y1="709.55" x2="94.83" y2="567.91"/><polygon class="cls-2" points="226.53 360.17 48.95 377.11 94.83 567.91 226.53 360.17"/><polygon class="cls-2" points="325.86 594.54 226.53 360.17 94.83 567.91 325.86 594.54"/><line class="cls-2" x1="94.83" y1="567.91" x2="48.95" y2="377.11"/><polygon class="cls-2" points="740.33 481.67 568 557.91 607.67 686.33 607.67 686.33 740.33 481.67"/><polygon class="cls-2" points="735.67 292.44 576.81 331.41 740.33 481.67 735.67 292.44"/><line class="cls-2" x1="735.67" y1="292.44" x2="740.33" y2="481.67"/><polygon class="cls-2" points="740.33 481.67 576.81 331.41 568 557.91 740.33 481.67"/><polyline class="cls-2" points="366.33 280 325.86 594.54 226.53 360.17 366.33 280"/><line class="cls-2" x1="366.33" y1="280" x2="494.92" y2="178.08"/><polygon class="cls-2" points="576.81 331.41 494.92 178.08 366.33 280 576.81 331.41"/><polyline class="cls-2" points="226.53 360.17 366.33 280 271.95 141.07 235.67 87.67 227.5 353.67"/><line class="cls-2" x1="103.67" y1="207.78" x2="226.53" y2="360.17"/><polygon class="cls-2" points="50.79 372.79 48.95 377.11 226.53 360.17 103.67 207.78 50.79 372.79"/><polyline class="cls-2" points="48.95 377.11 50.79 372.79 103.67 207.78"/><line class="cls-2" x1="103.67" y1="207.78" x2="235.67" y2="87.67"/><line class="cls-2" x1="235.67" y1="87.67" x2="103.67" y2="207.78"/><line class="cls-2" x1="616.47" y1="121.26" x2="735.67" y2="292.44"/><polyline class="cls-2" points="576.81 331.41 735.67 292.44 616.47 121.26"/><polyline class="cls-2" points="616.47 121.26 494.92 178.08 576.81 331.41 616.47 121.26"/><polyline class="cls-2" points="494.92 178.08 616.47 121.26 377.51 47"/><line class="cls-2" x1="377.51" y1="47" x2="494.92" y2="178.08"/><line class="cls-2" x1="494.92" y1="178.08" x2="377.51" y2="47"/><line class="cls-2" x1="377.51" y1="47" x2="235.67" y2="87.67"/><polyline class="cls-2" points="235.67 87.67 377.51 47 366.33 280"/><polygon class="cls-2" points="325.86 594.54 568 557.91 470.52 427.09 325.86 594.54"/><polygon class="cls-2" points="366.33 280 470.52 427.09 568 557.91 576.81 331.41 366.33 280"/><line class="cls-2" x1="470.52" y1="427.09" x2="575.6" y2="329"/></g></svg>