<svg xmlns="http://www.w3.org/2000/svg" viewBox="0 0 800 800"><defs><style>.cls-1,.cls-2{fill:none;stroke-miterlimit:10;}.cls-1{stroke:#515151;stroke-width:0.75px;}.cls-2{stroke:#3f3f3f;stroke-width:1.5px;}</style></defs><title>trivvial-logo-13</title><g id="Layer_2" data-name="Layer 2"><polygon class="cls-1" points="400 99.36 260.58 133.72 153.1 228.94 102.19 363.2 119.5 505.74 201.06 623.91 328.2 690.64 471.8 690.64 598.94 623.91 680.5 505.74 697.81 363.2 646.89 228.94 539.42 133.72 400 99.36"/><polygon class="cls-1" points="328.7 690.23 301.5 580.59 201.56 623.5 182.5 510.59 120.5 505.33 186.5 394.59 102.69 362.79 188.5 258.59 153.6 228.53 303.14 202.43 261 132.95 400.5 142.59 400.42 98.95 484.5 153.59 539.83 133.31 553.57 199.25 647.31 228.53 617.5 326.09 698.31 362.79 585.5 474.59 681 505.33 562.5 567.59 599.44 623.5 497.33 610.59 472.3 690.23 380.5 607.25 328.7 690.23"/><polyline class="cls-1" points="400 143 420 229.58 484 154 553.57 199.66 514.5 287.5 484.5 154 400.5 143 303.14 202.84 420.5 229.58 298.5 350.5 303.14 202.84 188.5 259 186.5 395 182.5 511 301.5 581 415.16 549.78 380.5 607.67 497.33 611 478.5 488.5 562.5 568 585.5 475 617.5 326.5 514.5 287.5 647.31 228.94"/><polygon class="cls-1" points="514 287.5 420 229.58 462 369 514 287.5"/><polyline class="cls-1" points="478 488.5 462 369 298 350.5"/><polyline class="cls-1" points="380.5 607.67 301 581 308.33 467 186 395 298 350.5 188 259"/><polyline class="cls-1" points="369 451 414.66 549.78 478 488.5 585 475 462 369 369 451 308.33 467 298 350.5 369 451"/><polyline class="cls-1" points="369 451 478 488.5 462 369 617.5 326.5"/><polyline class="cls-1" points="182.5 511 308.33 467 414.66 549.78 497.33 611 562.5 568"/></g><g id="Layer_1" data-name="Layer 1"><polygon class="cls-2" points="400 100 260.58 134.36 153.1 229.58 102.19 363.84 119.5 506.38 201.06 624.55 328.2 691.28 471.8 691.28 598.94 624.55 680.5 506.38 697.81 363.84 646.89 229.58 539.42 134.36 400 100"/><polygon class="cls-2" points="534 417 585 236 484 252 534 417"/><polyline class="cls-2" points="260.5 134 260.5 277 399.92 100 483.92 252 539.33 134.36 584.92 236 646.81 229.58"/><polyline class="cls-2" points="153.1 229.58 260.58 277 102.19 363.84 227 475 201.06 624.55 355.25 516.33 328.2 691.28 478 560 471.8 691.28"/><polyline class="cls-2" points="120 506.38 227.5 475 355.75 516.33 478.5 560 534.5 417"/><polyline class="cls-2" points="355.25 516.33 391.8 370.75 484 252 260.58 277 227 475 355.25 516.33 534 417"/><polyline class="cls-2" points="598.94 624.55 478 560 680.5 506.38 534 417 697.81 363.84 585 236"/><polyline class="cls-2" points="260.58 277 391.8 370.75 534 417"/><polyline class="cls-2" points="227 475 391.8 370.75 484 252"/><line class="cls-2" x1="328.21" y1="691.28" x2="355.25" y2="516.33"/><line class="cls-2" x1="391.8" y1="370.75" x2="260.58" y2="277"/><line class="cls-2" x1="227" y1="475" x2="201.06" y2="624.55"/></g></svg>